<?xml version="1.0" standalone="no"?>
<!DOCTYPE svg PUBLIC "-//W3C//DTD SVG 20010904//EN"
 "http://www.w3.org/TR/2001/REC-SVG-20010904/DTD/svg10.dtd">
<svg version="1.0" xmlns="http://www.w3.org/2000/svg"
 width="640.000000pt" height="640.000000pt" viewBox="0 0 640.000000 640.000000"
 preserveAspectRatio="xMidYMid meet">
<metadata>
Created by potrace 1.14, written by Peter Selinger 2001-2017
</metadata>
<g transform="translate(0.000000,640.000000) scale(0.100000,-0.100000)"
fill="#000000" stroke="none">
<path d="M2980 6394 c-658 -61 -1202 -263 -1692 -629 -997 -746 -1470 -1988
-1222 -3209 245 -1206 1175 -2172 2374 -2465 455 -111 939 -120 1404 -25 1206
245 2172 1175 2465 2374 180 738 88 1534 -254 2205 -505 992 -1482 1650 -2590
1745 -110 9 -401 11 -485 4z m-1444 -1064 c31 -12 53 -37 54 -61 0 -9 22 -51
48 -95 74 -121 109 -192 138 -274 62 -180 34 -468 -72 -751 -72 -192 -334
-426 -619 -554 l-110 -50 -115 0 c-141 0 -198 21 -259 94 -57 68 -64 87 -69
186 -10 206 91 610 198 786 15 25 43 79 60 120 87 197 387 486 575 552 28 10
66 26 85 37 41 22 50 23 86 10z m482 -881 c18 -19 44 -118 71 -274 6 -33 16
-133 22 -223 l12 -163 18 30 c10 16 51 96 92 178 155 309 174 339 224 349 26
5 37 1 57 -19 31 -31 33 -68 8 -105 -24 -35 -82 -144 -222 -417 -147 -286
-166 -320 -202 -350 -36 -31 -57 -31 -93 -3 -27 21 -27 24 -21 91 4 39 2 116
-4 171 -5 56 -14 171 -21 256 -6 85 -22 211 -37 280 -14 69 -25 139 -24 155 3
58 81 87 120 44z m780 -153 c39 -21 66 -53 102 -126 43 -84 47 -178 12 -288
-19 -60 -32 -82 -80 -131 -50 -50 -65 -60 -105 -66 -26 -4 -54 -5 -62 -1 -12
4 -15 -3 -15 -37 0 -55 40 -136 87 -178 34 -29 40 -31 87 -25 72 8 149 50 217
117 66 66 97 74 136 37 40 -38 31 -75 -35 -143 -136 -142 -327 -199 -452 -135
-52 27 -117 103 -154 180 -29 61 -30 72 -31 190 0 107 4 140 28 229 66 240
117 353 170 376 41 18 62 18 95 1z m693 -155 c28 -29 29 -32 28 -123 0 -51 -4
-136 -8 -188 -4 -52 -6 -96 -5 -98 4 -6 45 19 105 63 122 90 340 174 453 175
42 0 66 -26 66 -70 0 -55 -31 -78 -116 -89 -101 -13 -223 -67 -339 -151 -27
-20 -83 -56 -122 -81 -83 -49 -80 -43 -108 -254 -24 -187 -26 -194 -53 -215
-13 -11 -33 -20 -43 -20 -28 0 -71 42 -71 70 -1 31 31 278 39 304 3 13 -2 25
-18 37 -19 14 -24 30 -29 86 -5 61 0 90 47 268 29 110 52 214 53 231 0 33 14
56 45 72 31 17 44 14 76 -17z m653 -1153 c31 -44 9 -358 -39 -562 -55 -238
-94 -569 -95 -806 0 -185 -9 -217 -61 -238 -21 -8 -39 -19 -39 -23 0 -14 -48
-34 -151 -64 -94 -27 -97 -27 -152 -11 -65 19 -120 74 -139 140 -14 49 -14
388 1 490 14 99 56 136 131 116 63 -17 137 -110 231 -290 l24 -45 7 75 c30
312 66 565 103 710 17 69 44 275 52 400 7 111 18 130 74 130 28 0 42 -6 53
-22z m-1749 -389 c16 0 71 -13 122 -30 131 -43 170 -92 122 -153 -23 -30 -62
-34 -106 -12 -47 25 -124 44 -204 51 -141 12 -167 -3 -249 -143 -62 -105 -121
-283 -135 -402 -7 -69 12 -111 73 -157 49 -37 91 -51 179 -60 76 -7 124 11
257 98 102 67 134 73 165 33 42 -53 21 -88 -94 -163 -177 -115 -265 -138 -406
-107 -98 23 -149 46 -208 96 -99 83 -128 159 -110 287 14 105 84 337 119 393
15 25 46 77 68 116 43 74 118 144 156 144 12 0 28 5 36 11 9 6 48 8 100 4 47
-3 98 -6 115 -6z m679 -280 c19 -15 26 -30 26 -54 0 -19 4 -36 8 -39 5 -3 29
3 55 12 43 15 50 15 75 2 55 -32 52 -107 -5 -132 -16 -7 -29 -12 -30 -13 -1 0
16 -46 38 -100 32 -77 42 -118 46 -176 5 -71 3 -81 -23 -129 -78 -143 -285
-290 -407 -290 -106 1 -167 40 -207 132 -26 62 -20 134 18 223 36 80 92 149
219 271 l105 101 -17 33 c-9 18 -18 55 -19 82 -1 43 3 53 27 74 34 29 56 30
91 3z m2779 -60 c74 -34 49 -158 -64 -309 -43 -58 -112 -127 -478 -476 -96
-92 -253 -216 -298 -237 -13 -6 -26 -22 -29 -36 -65 -283 -84 -318 -162 -285
-49 20 -49 45 -3 236 23 95 46 208 52 252 5 45 16 115 24 156 21 107 72 414
81 485 12 105 33 135 93 135 80 0 92 -65 55 -284 -27 -163 -82 -435 -90 -448
-10 -16 10 -7 45 19 87 65 543 507 598 578 41 54 59 92 68 142 4 28 15 50 32
63 29 23 42 24 76 9z m-1250 -180 c25 -17 56 -46 68 -65 19 -31 21 -44 15
-101 -9 -88 -26 -125 -85 -181 -51 -49 -136 -90 -286 -138 l-70 -23 2 -40 c6
-137 88 -141 301 -14 59 34 117 63 130 63 51 0 90 -73 60 -113 -27 -35 -229
-147 -313 -173 -81 -25 -89 -26 -146 -14 -47 10 -70 22 -105 54 -39 35 -48 51
-63 111 -21 84 -20 195 3 284 25 96 101 238 158 292 71 69 118 89 209 89 68 0
80 -3 122 -31z"/>
<path d="M1389 5132 c-190 -97 -399 -309 -474 -482 -15 -36 -39 -82 -52 -104
-33 -51 -108 -246 -132 -343 -29 -115 -51 -263 -51 -345 0 -126 45 -168 182
-168 65 0 84 5 172 45 94 43 232 129 323 203 50 40 174 184 195 227 24 46 86
271 99 355 18 118 7 282 -24 358 -48 117 -147 282 -170 282 -7 0 -37 -13 -68
-28z"/>
<path d="M2716 4013 c-19 -60 -37 -125 -41 -145 -6 -34 -5 -38 13 -38 37 0 79
62 92 138 13 68 4 132 -20 147 -5 3 -24 -43 -44 -102z"/>
<path d="M3605 1705 c-8 -118 -1 -225 15 -256 5 -9 17 -20 26 -23 18 -7 154
33 154 45 0 10 -153 301 -173 329 -14 20 -16 12 -22 -95z"/>
<path d="M2956 1888 c-90 -91 -123 -130 -146 -180 -34 -71 -37 -103 -14 -136
42 -60 204 14 305 142 33 41 39 56 39 95 0 25 -9 66 -20 90 -11 24 -20 49 -20
55 0 7 -6 21 -14 31 -12 17 -22 10 -130 -97z"/>
<path d="M4418 1950 c-42 -23 -74 -62 -112 -137 -43 -85 -42 -86 92 -31 96 40
128 68 137 119 6 33 3 43 -12 54 -25 20 -61 18 -105 -5z"/>
</g>
</svg>
